<svg width="131" height="30" viewBox="0 0 131 30" fill="none" xmlns="http://www.w3.org/2000/svg">
<path d="M130.12 19.1572C131.035 18.5388 131.276 17.2956 130.657 16.3803L120.58 1.46543C119.962 0.550172 118.719 0.309503 117.803 0.927876C116.888 1.54625 116.647 2.7895 117.266 3.70475L126.223 16.9625L112.965 25.9198C112.05 26.5381 111.81 27.7814 112.428 28.6966C113.046 29.6119 114.29 29.8526 115.205 29.2342L130.12 19.1572ZM0.55264 7.99931C47.1854 6.7715 75.0713 9.09758 128.62 19.4636L129.38 15.5365C75.5776 5.12133 47.4004 2.76445 0.44736 4.00069L0.55264 7.99931Z" fill="#24407A"/>
</svg>
