<svg width="12" height="11" viewBox="0 0 12 11" fill="none" xmlns="http://www.w3.org/2000/svg">
<g clip-path="url(#clip0)">
<path d="M1.56805 6.53516L1.04774 6.01484C0.827429 5.79453 0.827429 5.43828 1.04774 5.22031L5.60165 0.664063C5.82196 0.44375 6.17821 0.44375 6.39618 0.664063L10.9524 5.22031C11.1727 5.44063 11.1727 5.79688 10.9524 6.01484L10.4321 6.53516C10.2095 6.75781 9.84618 6.75313 9.62821 6.52578L6.93759 3.70156L6.93759 10.4375C6.93759 10.7492 6.6868 11 6.37509 11H5.62509C5.31337 11 5.06259 10.7492 5.06259 10.4375L5.06259 3.70156L2.37196 6.52578C2.15399 6.75547 1.79071 6.76016 1.56805 6.53516Z" fill="#81A3BE"/>
</g>
<defs>
<clipPath id="clip0">
<rect width="10.5" height="12" fill="white" transform="translate(0 11) rotate(-90)"/>
</clipPath>
</defs>
</svg>
