<svg width="28" height="41" viewBox="0 0 28 41" fill="none" xmlns="http://www.w3.org/2000/svg">
<path d="M4.68751 1.19108C4.24076 0.180891 3.05967 -0.275865 2.04948 0.170888C1.03929 0.617642 0.582533 1.79873 1.02929 2.80892L4.68751 1.19108ZM18.2789 40.3651C19.3091 40.7635 20.4673 40.2514 20.8657 39.2211L27.3581 22.4328C27.7565 21.4026 27.2444 20.2445 26.2142 19.8461C25.1839 19.4476 24.0258 19.9598 23.6274 20.99L17.8563 35.913L2.93336 30.1419C1.90314 29.7435 0.745014 30.2557 0.346605 31.2859C-0.051806 32.3161 0.460372 33.4742 1.49059 33.8727L18.2789 40.3651ZM1.02929 2.80892L17.1712 39.3087L20.8294 37.6908L4.68751 1.19108L1.02929 2.80892Z" fill="#24407A"/>
</svg>
